<svg xmlns="http://www.w3.org/2000/svg" width="32" height="20" viewBox="0 0 32 20">
    <g fill="none" fill-rule="evenodd">
        <path fill="#EBF1F8" d="M29.33 20H2.67a2.717 2.717 0 0 1-1.879-.725A2.47 2.47 0 0 1 0 17.495V2.505c.006-.67.29-1.31.791-1.78.501-.47 1.177-.73 1.88-.725H29.33a2.717 2.717 0 0 1 1.879.725c.5.47.785 1.11.791 1.78v15c-.018 1.391-1.212 2.507-2.67 2.495z"/>
        <path fill="#F27712" d="M16.817 20H29.33a2.717 2.717 0 0 0 1.879-.725c.5-.47.785-1.11.791-1.78v-3A53.203 53.203 0 0 1 16.817 20z"/>
        <path fill="#000" fill-rule="nonzero" d="M30.897 11.474H29.76l-1.28-1.61h-.121v1.61h-.927v-4H28.8c1.07 0 1.688.42 1.688 1.179 0 .62-.386 1.02-1.081 1.147l1.49 1.674zm-1.369-2.79c0-.39-.309-.59-.882-.59h-.287v1.211h.264c.596 0 .905-.21.905-.62zm-5.34-1.21h2.626v.673h-1.7v.895h1.634v.684h-1.634v1.085h1.7v.673h-2.626v-4.01zm-2.98 4.105L19.2 7.463h1.015l1.27 2.695 1.28-2.695h.992l-2.03 4.116h-.519zm-8.397-.01c-1.412 0-2.516-.916-2.516-2.106 0-1.158 1.126-2.095 2.538-2.095.397 0 .728.074 1.137.243v.926a1.697 1.697 0 0 0-1.159-.453c-.883 0-1.556.61-1.556 1.38 0 .81.662 1.389 1.6 1.389.42 0 .74-.127 1.115-.442v.926c-.42.168-.773.231-1.159.231zm-2.803-1.316c0 .779-.673 1.315-1.644 1.315-.706 0-1.214-.231-1.644-.757l.607-.495c.21.358.563.537 1.004.537.42 0 .717-.242.717-.558 0-.18-.088-.316-.276-.421a3.957 3.957 0 0 0-.64-.232c-.871-.263-1.17-.547-1.17-1.105 0-.653.64-1.148 1.48-1.148.529 0 1.004.158 1.4.453l-.485.526a1.038 1.038 0 0 0-.75-.315c-.397 0-.684.19-.684.442 0 .21.165.326.717.505 1.06.316 1.368.61 1.368 1.263v-.01zm-4.557-2.78h.927v4.011H5.45v-4.01zm-2.98 4.011H1.104v-4.01h1.369c1.5 0 2.538.82 2.538 2 0 .6-.31 1.168-.85 1.547-.463.316-.982.463-1.7.463h.012zm1.082-3.01c-.309-.232-.662-.316-1.269-.316H2.03v2.653h.254c.596 0 .971-.106 1.27-.316.32-.253.507-.632.507-1.021 0-.39-.188-.758-.508-1z"/>
        <path fill="#F27712" d="M16.552 7.368c-1.214 0-2.207.927-2.207 2.074 0 1.221.949 2.137 2.207 2.137 1.236 0 2.207-.926 2.207-2.105 0-1.18-.96-2.106-2.207-2.106z"/>
    </g>
</svg>
