<svg xmlns="http://www.w3.org/2000/svg" width="32" height="20" viewBox="0 0 32 20">
    <g fill="none" fill-rule="evenodd">
        <path fill="#003663" d="M29.33 20H2.67a2.717 2.717 0 0 1-1.879-.725A2.47 2.47 0 0 1 0 17.495V2.505c.006-.67.29-1.31.791-1.78.501-.47 1.177-.73 1.88-.725H29.33a2.717 2.717 0 0 1 1.879.725c.5.47.785 1.11.791 1.78v15c-.018 1.391-1.212 2.507-2.67 2.495z"/>
        <ellipse cx="11.586" cy="10" fill="#EB1C26" rx="7.172" ry="6.842"/>
        <ellipse cx="20.414" cy="10" fill="#F99F1B" rx="7.172" ry="6.842"/>
        <path fill="#EF5D20" d="M16 4.61c-1.742 1.295-2.76 3.284-2.76 5.39s1.018 4.095 2.76 5.39c1.742-1.295 2.76-3.284 2.76-5.39S17.743 5.905 16 4.61z"/>
    </g>
</svg>
