<svg xmlns="http://www.w3.org/2000/svg" width="32" height="20" viewBox="0 0 32 20">
    <g fill="none" fill-rule="evenodd">
        <path fill="#F6F9FC" d="M29.33 20H2.67a2.717 2.717 0 0 1-1.879-.725A2.47 2.47 0 0 1 0 17.495V2.505c.006-.67.29-1.31.791-1.78.501-.47 1.177-.73 1.88-.725H29.33a2.717 2.717 0 0 1 1.879.725c.5.47.785 1.11.791 1.78v15c-.018 1.391-1.212 2.507-2.67 2.495z"/>
        <path fill="#F99F1B" d="M0 16.842v.663C.018 18.896 1.212 20.012 2.67 20h26.66a2.717 2.717 0 0 0 1.879-.725c.5-.47.785-1.11.791-1.78v-.653H0z"/>
        <path fill="#2D4990" fill-rule="nonzero" d="M0 3.158v-.663C.018 1.104 1.212-.012 2.67 0h26.66a2.717 2.717 0 0 1 1.879.725c.5.47.785 1.11.791 1.78v.653H0zm15.338 3.284l-1.633 7.126h-1.953l1.61-7.126h1.975zm8.243 4.61l1.037-2.684.596 2.685H23.58zm2.196 2.527h1.81l-1.59-7.137h-1.666a.885.885 0 0 0-.839.526l-2.946 6.6h2.064l.408-1.052h2.516l.243 1.052v.01zm-5.12-2.337c0-1.874-2.77-1.979-2.76-2.82.012-.254.277-.527.84-.6.661-.06 1.328.048 1.93.315l.343-1.505a5.56 5.56 0 0 0-1.832-.316c-1.942 0-3.31.968-3.31 2.358-.011 1.02.97 1.6 1.71 1.937.772.347 1.026.578 1.026.884-.01.484-.618.694-1.18.694-.994.022-1.556-.242-2.009-.442l-.364 1.558c.463.2 1.313.369 2.185.38 2.063 0 3.41-.948 3.42-2.443zm-8.133-4.8L9.346 13.58H7.283L5.716 7.895c-.1-.348-.188-.474-.475-.632a8.595 8.595 0 0 0-1.93-.6l.043-.21h3.344c.42 0 .805.273.905.736l.827 4.116 2.042-4.842h2.052v-.02z"/>
    </g>
</svg>
